<?xml version="1.0" encoding="UTF-8" standalone="no"?>
<!DOCTYPE svg PUBLIC "-//W3C//DTD SVG 1.1//EN"
 "http://www.w3.org/Graphics/SVG/1.1/DTD/svg11.dtd">
<!-- Generated by graphviz version 2.38.0 (20140413.2041)
 -->
<!-- Title: G Pages: 1 -->
<svg width="127pt" height="294pt"
 viewBox="0.00 0.00 127.00 294.00" xmlns="http://www.w3.org/2000/svg" xmlns:xlink="http://www.w3.org/1999/xlink">
<g id="graph0" class="graph" transform="scale(1 1) rotate(0) translate(4 290)">
<title>G</title>
<polygon fill="white" stroke="none" points="-4,4 -4,-290 123,-290 123,4 -4,4"/>
<g id="clust1" class="cluster"><title>cluster_Global</title>
<path fill="none" stroke="gray" d="M20,-8C20,-8 99,-8 99,-8 105,-8 111,-14 111,-20 111,-20 111,-266 111,-266 111,-272 105,-278 99,-278 99,-278 20,-278 20,-278 14,-278 8,-272 8,-266 8,-266 8,-20 8,-20 8,-14 14,-8 20,-8"/>
<text text-anchor="middle" x="59.5" y="-265.2" font-family="Times New Roman,serif" font-size="11.00" fill="gray">Global</text>
</g>
<g id="clust2" class="cluster"><title>cluster_\Includes</title>
<path fill="none" stroke="gray" d="M28,-16C28,-16 91,-16 91,-16 97,-16 103,-22 103,-28 103,-28 103,-238 103,-238 103,-244 97,-250 91,-250 91,-250 28,-250 28,-250 22,-250 16,-244 16,-238 16,-238 16,-28 16,-28 16,-22 22,-16 28,-16"/>
<text text-anchor="middle" x="59.5" y="-237.2" font-family="Times New Roman,serif" font-size="11.00" fill="gray">Includes</text>
</g>
<!-- \\Includes\\File -->
<g id="node1" class="node"><title>\\Includes\\File</title>
<polygon fill="none" stroke="black" points="86.5,-222 32.5,-222 32.5,-186 86.5,-186 86.5,-222"/>
<text text-anchor="middle" x="59.5" y="-201.2" font-family="Courier,monospace" font-size="11.00">File</text>
</g>
<!-- \\Includes\\Generate -->
<g id="node2" class="node"><title>\\Includes\\Generate</title>
<polygon fill="none" stroke="black" points="95,-168 24,-168 24,-132 95,-132 95,-168"/>
<text text-anchor="middle" x="59.5" y="-147.2" font-family="Courier,monospace" font-size="11.00">Generate</text>
</g>
<!-- \\Includes\\Input -->
<g id="node3" class="node"><title>\\Includes\\Input</title>
<polygon fill="none" stroke="black" points="86.5,-114 32.5,-114 32.5,-78 86.5,-78 86.5,-114"/>
<text text-anchor="middle" x="59.5" y="-93.2" font-family="Courier,monospace" font-size="11.00">Input</text>
</g>
<!-- \\Includes\\Text -->
<g id="node4" class="node"><title>\\Includes\\Text</title>
<polygon fill="none" stroke="black" points="86.5,-60 32.5,-60 32.5,-24 86.5,-24 86.5,-60"/>
<text text-anchor="middle" x="59.5" y="-39.2" font-family="Courier,monospace" font-size="11.00">Text</text>
</g>
</g>
</svg>
